<?xml version="1.0" encoding="UTF-8" standalone="no"?>
<!DOCTYPE svg PUBLIC "-//W3C//DTD SVG 1.1//EN"
 "http://www.w3.org/Graphics/SVG/1.1/DTD/svg11.dtd">
<!-- Generated by graphviz version 2.42.3 (20191010.1750)
 -->
<!-- Title: snakemake_dag Pages: 1 -->
<svg width="298pt" height="481pt"
 viewBox="0.00 0.00 297.50 481.00" xmlns="http://www.w3.org/2000/svg" xmlns:xlink="http://www.w3.org/1999/xlink">
<g id="graph0" class="graph" transform="scale(1 1) rotate(0) translate(4 477)">
<title>snakemake_dag</title>
<polygon fill="white" stroke="transparent" points="-4,4 -4,-477 293.5,-477 293.5,4 -4,4"/>
<!-- 0 -->
<g id="node1" class="node">
<title>0</title>
<path fill="none" stroke="#56d87b" stroke-width="2" stroke-dasharray="5,2" d="M149.5,-36C149.5,-36 119.5,-36 119.5,-36 113.5,-36 107.5,-30 107.5,-24 107.5,-24 107.5,-12 107.5,-12 107.5,-6 113.5,0 119.5,0 119.5,0 149.5,0 149.5,0 155.5,0 161.5,-6 161.5,-12 161.5,-12 161.5,-24 161.5,-24 161.5,-30 155.5,-36 149.5,-36"/>
<text text-anchor="middle" x="134.5" y="-15.5" font-family="sans" font-size="10.00">all</text>
</g>
<!-- 1 -->
<g id="node2" class="node">
<title>1</title>
<path fill="none" stroke="#d8a456" stroke-width="2" stroke-dasharray="5,2" d="M151.5,-108C151.5,-108 117.5,-108 117.5,-108 111.5,-108 105.5,-102 105.5,-96 105.5,-96 105.5,-84 105.5,-84 105.5,-78 111.5,-72 117.5,-72 117.5,-72 151.5,-72 151.5,-72 157.5,-72 163.5,-78 163.5,-84 163.5,-84 163.5,-96 163.5,-96 163.5,-102 157.5,-108 151.5,-108"/>
<text text-anchor="middle" x="134.5" y="-87.5" font-family="sans" font-size="10.00">clear_up</text>
</g>
<!-- 1&#45;&gt;0 -->
<g id="edge1" class="edge">
<title>1&#45;&gt;0</title>
<path fill="none" stroke="grey" stroke-width="2" d="M134.5,-71.7C134.5,-63.98 134.5,-54.71 134.5,-46.11"/>
<polygon fill="grey" stroke="grey" stroke-width="2" points="138,-46.1 134.5,-36.1 131,-46.1 138,-46.1"/>
</g>
<!-- 2 -->
<g id="node3" class="node">
<title>2</title>
<path fill="none" stroke="#c6d856" stroke-width="2" stroke-dasharray="5,2" d="M225,-473C225,-473 12,-473 12,-473 6,-473 0,-467 0,-461 0,-461 0,-444 0,-444 0,-438 6,-432 12,-432 12,-432 225,-432 225,-432 231,-432 237,-438 237,-444 237,-444 237,-461 237,-461 237,-467 231,-473 225,-473"/>
<text text-anchor="middle" x="118.5" y="-461" font-family="sans" font-size="10.00">bcf_filter</text>
<text text-anchor="middle" x="118.5" y="-450" font-family="sans" font-size="10.00">genome: S_lycopersicum_chromosomes.4.00</text>
<text text-anchor="middle" x="118.5" y="-439" font-family="sans" font-size="10.00">sample: ERR4102X</text>
</g>
<!-- 2&#45;&gt;1 -->
<g id="edge2" class="edge">
<title>2&#45;&gt;1</title>
<path fill="none" stroke="grey" stroke-width="2" d="M109.2,-431.9C97.1,-404.56 77.5,-353.16 77.5,-307 77.5,-307 77.5,-307 77.5,-233 77.5,-189.8 100.5,-144.19 117.28,-116.66"/>
<polygon fill="grey" stroke="grey" stroke-width="2" points="120.33,-118.37 122.69,-108.04 114.41,-114.65 120.33,-118.37"/>
</g>
<!-- 6 -->
<g id="node7" class="node">
<title>6</title>
<path fill="none" stroke="#56d8c9" stroke-width="2" stroke-dasharray="5,2" d="M201,-396C201,-396 118,-396 118,-396 112,-396 106,-390 106,-384 106,-384 106,-372 106,-372 106,-366 112,-360 118,-360 118,-360 201,-360 201,-360 207,-360 213,-366 213,-372 213,-372 213,-384 213,-384 213,-390 207,-396 201,-396"/>
<text text-anchor="middle" x="159.5" y="-375.5" font-family="sans" font-size="10.00">bedtools_cds_only</text>
</g>
<!-- 2&#45;&gt;6 -->
<g id="edge9" class="edge">
<title>2&#45;&gt;6</title>
<path fill="none" stroke="grey" stroke-width="2" d="M129.7,-431.69C134.35,-423.47 139.8,-413.83 144.77,-405.05"/>
<polygon fill="grey" stroke="grey" stroke-width="2" points="147.83,-406.75 149.71,-396.32 141.74,-403.3 147.83,-406.75"/>
</g>
<!-- 3 -->
<g id="node4" class="node">
<title>3</title>
<path fill="none" stroke="#56a2d8" stroke-width="2" stroke-dasharray="5,2" d="M277.5,-180C277.5,-180 193.5,-180 193.5,-180 187.5,-180 181.5,-174 181.5,-168 181.5,-168 181.5,-156 181.5,-156 181.5,-150 187.5,-144 193.5,-144 193.5,-144 277.5,-144 277.5,-144 283.5,-144 289.5,-150 289.5,-156 289.5,-156 289.5,-168 289.5,-168 289.5,-174 283.5,-180 277.5,-180"/>
<text text-anchor="middle" x="235.5" y="-159.5" font-family="sans" font-size="10.00">bcftools_compress</text>
</g>
<!-- 3&#45;&gt;1 -->
<g id="edge3" class="edge">
<title>3&#45;&gt;1</title>
<path fill="none" stroke="grey" stroke-width="2" d="M210.79,-143.88C197.83,-134.89 181.77,-123.76 167.73,-114.03"/>
<polygon fill="grey" stroke="grey" stroke-width="2" points="169.52,-111.01 159.3,-108.19 165.53,-116.76 169.52,-111.01"/>
</g>
<!-- 4 -->
<g id="node5" class="node">
<title>4</title>
<path fill="none" stroke="#d85656" stroke-width="2" stroke-dasharray="5,2" d="M239,-252C239,-252 156,-252 156,-252 150,-252 144,-246 144,-240 144,-240 144,-228 144,-228 144,-222 150,-216 156,-216 156,-216 239,-216 239,-216 245,-216 251,-222 251,-228 251,-228 251,-240 251,-240 251,-246 245,-252 239,-252"/>
<text text-anchor="middle" x="197.5" y="-231.5" font-family="sans" font-size="10.00">whatshap_phasing</text>
</g>
<!-- 4&#45;&gt;1 -->
<g id="edge4" class="edge">
<title>4&#45;&gt;1</title>
<path fill="none" stroke="grey" stroke-width="2" d="M189.23,-215.89C184.28,-205.54 177.92,-192.06 172.5,-180 163.18,-159.25 153.09,-135.54 145.65,-117.82"/>
<polygon fill="grey" stroke="grey" stroke-width="2" points="148.69,-116.02 141.6,-108.14 142.23,-118.72 148.69,-116.02"/>
</g>
<!-- 4&#45;&gt;3 -->
<g id="edge6" class="edge">
<title>4&#45;&gt;3</title>
<path fill="none" stroke="grey" stroke-width="2" d="M206.89,-215.7C211.26,-207.64 216.56,-197.89 221.4,-188.98"/>
<polygon fill="grey" stroke="grey" stroke-width="2" points="224.52,-190.56 226.21,-180.1 218.37,-187.22 224.52,-190.56"/>
</g>
<!-- 5 -->
<g id="node6" class="node">
<title>5</title>
<path fill="none" stroke="#78d856" stroke-width="2" stroke-dasharray="5,2" d="M234,-324C234,-324 157,-324 157,-324 151,-324 145,-318 145,-312 145,-312 145,-300 145,-300 145,-294 151,-288 157,-288 157,-288 234,-288 234,-288 240,-288 246,-294 246,-300 246,-300 246,-312 246,-312 246,-318 240,-324 234,-324"/>
<text text-anchor="middle" x="195.5" y="-303.5" font-family="sans" font-size="10.00">bcftools_rm_dupl</text>
</g>
<!-- 5&#45;&gt;4 -->
<g id="edge7" class="edge">
<title>5&#45;&gt;4</title>
<path fill="none" stroke="grey" stroke-width="2" d="M195.99,-287.7C196.21,-279.98 196.48,-270.71 196.73,-262.11"/>
<polygon fill="grey" stroke="grey" stroke-width="2" points="200.22,-262.2 197.01,-252.1 193.23,-262 200.22,-262.2"/>
</g>
<!-- 6&#45;&gt;1 -->
<g id="edge5" class="edge">
<title>6&#45;&gt;1</title>
<path fill="none" stroke="grey" stroke-width="2" d="M149.61,-359.96C144.32,-349.87 138.32,-336.62 135.5,-324 119.26,-251.21 125.89,-162.41 130.88,-118.42"/>
<polygon fill="grey" stroke="grey" stroke-width="2" points="134.38,-118.58 132.09,-108.24 127.43,-117.75 134.38,-118.58"/>
</g>
<!-- 6&#45;&gt;5 -->
<g id="edge8" class="edge">
<title>6&#45;&gt;5</title>
<path fill="none" stroke="grey" stroke-width="2" d="M168.4,-359.7C172.5,-351.73 177.45,-342.1 181.99,-333.26"/>
<polygon fill="grey" stroke="grey" stroke-width="2" points="185.24,-334.6 186.7,-324.1 179.02,-331.4 185.24,-334.6"/>
</g>
</g>
</svg>
